ply
format ascii 1.0
comment Created by Blender 2.69 (sub 0) - www.blender.org, source file: 'simple-d12.blend'
element vertex 100
property float x
property float y
property float z
property float nx
property float ny
property float nz
element face 36
property list uchar uint vertex_indices
end_header
0.000000 -1.000000 0.000000 0.526038 0.724030 0.446166
-0.951057 -0.309017 0.000000 0.526038 0.724030 0.446166
-1.539056 -0.496637 0.997730 0.526038 0.724030 0.446166
0.000000 -1.000000 0.000000 0.522561 0.732321 0.436619
-1.539056 -0.496637 0.997730 0.522561 0.732321 0.436619
0.005628 -1.604287 1.006808 0.522561 0.732321 0.436619
-1.539056 -0.496637 0.997730 0.520752 0.729849 0.442875
-0.948076 -1.297724 1.623005 0.520752 0.729849 0.442875
0.005628 -1.604287 1.006808 0.520752 0.729849 0.442875
0.587785 0.809017 0.000000 0.000000 0.000000 1.000000
-0.587785 0.809017 0.000000 0.000000 0.000000 1.000000
-0.951057 -0.309017 0.000000 0.000000 0.000000 1.000000
0.951057 -0.309017 0.000000 -0.000000 0.000000 1.000000
0.000000 -1.000000 0.000000 -0.000000 0.000000 1.000000
0.955047 0.309438 2.634709 -0.529492 -0.725227 -0.440095
0.002572 1.004845 2.634709 -0.529492 -0.725227 -0.440095
-0.004677 1.618568 1.632083 -0.529492 -0.725227 -0.440095
0.955047 0.309438 2.634709 -0.523868 -0.725669 -0.446056
-0.004677 1.618568 1.632083 -0.523868 -0.725669 -0.446056
1.536492 0.505983 1.632083 -0.523868 -0.725669 -0.446056
-0.004677 1.618568 1.632083 -0.528437 -0.731998 -0.430038
0.939825 1.304062 1.006808 -0.528437 -0.731998 -0.430038
1.536492 0.505983 1.632083 -0.528437 -0.731998 -0.430038
0.939825 1.304062 1.006808 -0.004643 -0.896145 0.443736
-0.004677 1.618568 1.632083 -0.004643 -0.896145 0.443736
-0.946186 1.309339 0.997730 -0.004643 -0.896145 0.443736
0.587785 0.809017 0.000000 -0.004639 -0.896735 0.442545
0.939825 1.304062 1.006808 -0.004639 -0.896735 0.442545
-0.946186 1.309339 0.997730 -0.004639 -0.896735 0.442545
-0.587785 0.809017 0.000000 0.000000 -0.893904 0.448258
0.587785 0.809017 0.000000 0.000000 -0.893904 0.448258
-0.946186 1.309339 0.997730 0.000000 -0.893904 0.448258
0.587785 0.809017 0.000000 -0.849706 -0.290557 0.439974
1.536492 0.505983 1.632083 -0.849706 -0.290557 0.439974
0.939825 1.304062 1.006808 -0.849706 -0.290557 0.439974
0.587785 0.809017 0.000000 -0.852816 -0.273299 0.444986
1.529246 -0.489479 1.006808 -0.852816 -0.273299 0.444986
1.536492 0.505983 1.632083 -0.852816 -0.273299 0.444986
0.587785 0.809017 0.000000 -0.853775 -0.277408 0.440583
0.951057 -0.309017 0.000000 -0.853775 -0.277408 0.440583
1.529246 -0.489479 1.006808 -0.853775 -0.277408 0.440583
0.951057 -0.309017 0.000000 -0.529371 0.728617 0.434606
0.000000 -1.000000 0.000000 -0.529371 0.728617 0.434606
1.529246 -0.489479 1.006808 -0.529371 0.728617 0.434606
0.000000 -1.000000 0.000000 -0.532621 0.720865 0.443473
0.939825 -1.304062 1.623005 -0.532621 0.720865 0.443473
1.529246 -0.489479 1.006808 -0.532621 0.720865 0.443473
0.000000 -1.000000 0.000000 -0.524585 0.728671 0.440282
0.005628 -1.604287 1.006808 -0.524585 0.728671 0.440282
0.939825 -1.304062 1.623005 -0.524585 0.728671 0.440282
0.955047 0.309438 2.634709 0.000000 0.000000 -1.000000
-0.953131 0.313880 2.634709 0.000000 0.000000 -1.000000
0.002572 1.004845 2.634709 0.000000 0.000000 -1.000000
-0.591313 -0.808566 2.634709 -0.000000 -0.000000 -1.000000
0.588006 -0.811312 2.634709 0.000000 0.000000 -1.000000
-0.587785 0.809017 0.000000 0.852584 -0.275196 0.444262
-0.946186 1.309339 0.997730 0.852584 -0.275196 0.444262
-1.539056 0.496638 1.632083 0.852584 -0.275196 0.444262
-0.587785 0.809017 0.000000 0.851328 -0.282381 0.442155
-1.539056 0.496638 1.632083 0.851328 -0.282381 0.442155
-1.539056 -0.496637 0.997730 0.851328 -0.282381 0.442155
-0.951057 -0.309017 0.000000 0.849839 -0.276129 0.448917
-0.587785 0.809017 0.000000 0.849839 -0.276129 0.448917
-1.539056 -0.496637 0.997730 0.849839 -0.276129 0.448917
0.955047 0.309438 2.634709 -0.852884 0.282143 -0.439299
1.536492 0.505983 1.632083 -0.852884 0.282143 -0.439299
1.529246 -0.489479 1.006808 -0.852884 0.282143 -0.439299
0.955047 0.309438 2.634709 -0.852053 0.283822 -0.439830
1.529246 -0.489479 1.006808 -0.852053 0.283822 -0.439830
0.939825 -1.304062 1.623005 -0.852053 0.283822 -0.439830
0.588006 -0.811312 2.634709 -0.856058 0.280355 -0.434241
0.955047 0.309438 2.634709 -0.856058 0.280355 -0.434241
0.939825 -1.304062 1.623005 -0.856058 0.280355 -0.434241
0.939825 -1.304062 1.623005 0.003012 0.897165 -0.441685
0.005628 -1.604287 1.006808 0.003012 0.897165 -0.441685
-0.948076 -1.297724 1.623005 0.003012 0.897165 -0.441685
-0.591313 -0.808566 2.634709 0.003021 0.899869 -0.436151
0.939825 -1.304062 1.623005 0.003021 0.899869 -0.436151
-0.948076 -1.297724 1.623005 0.003021 0.899869 -0.436151
-0.591313 -0.808566 2.634709 0.002094 0.899320 -0.437286
0.588006 -0.811312 2.634709 0.002094 0.899320 -0.437286
0.939825 -1.304062 1.623005 0.002094 0.899320 -0.437286
-0.953131 0.313880 2.634709 0.849485 0.283985 -0.444667
-1.539056 -0.496637 0.997730 0.849485 0.283985 -0.444667
-1.539056 0.496638 1.632083 0.849485 0.283985 -0.444667
-0.953131 0.313880 2.634709 0.850835 0.281274 -0.443807
-0.948076 -1.297724 1.623005 0.850835 0.281274 -0.443807
-1.539056 -0.496637 0.997730 0.850835 0.281274 -0.443807
-0.953131 0.313880 2.634709 0.856715 0.276160 -0.435632
-0.591313 -0.808566 2.634709 0.856715 0.276160 -0.435632
-0.948076 -1.297724 1.623005 0.856715 0.276160 -0.435632
0.002572 1.004845 2.634709 0.523985 -0.724746 -0.447417
-0.953131 0.313880 2.634709 0.523985 -0.724746 -0.447417
-0.004677 1.618568 1.632083 0.523985 -0.724746 -0.447417
-0.953131 0.313880 2.634709 0.532900 -0.723995 -0.438006
-0.946186 1.309339 0.997730 0.532900 -0.723995 -0.438006
-0.004677 1.618568 1.632083 0.532900 -0.723995 -0.438006
-0.953131 0.313880 2.634709 0.526293 -0.727507 -0.440170
-1.539056 0.496638 1.632083 0.526293 -0.727507 -0.440170
-0.946186 1.309339 0.997730 0.526293 -0.727507 -0.440170
3 0 1 2
3 3 4 5
3 6 7 8
3 9 10 11
3 12 9 11
3 12 11 13
3 14 15 16
3 17 18 19
3 20 21 22
3 23 24 25
3 26 27 28
3 29 30 31
3 32 33 34
3 35 36 37
3 38 39 40
3 41 42 43
3 44 45 46
3 47 48 49
3 50 51 52
3 53 51 50
3 50 54 53
3 55 56 57
3 58 59 60
3 61 62 63
3 64 65 66
3 67 68 69
3 70 71 72
3 73 74 75
3 76 77 78
3 79 80 81
3 82 83 84
3 85 86 87
3 88 89 90
3 91 92 93
3 94 95 96
3 97 98 99
