ply
format ascii 1.0
comment Created by Blender 2.69 (sub 0) - www.blender.org, source file: 'dice.blend'
element vertex 100
property float x
property float y
property float z
property float nx
property float ny
property float nz
element face 36
property list uchar uint vertex_indices
end_header
-0.809477 -0.261210 -0.158981 -0.520752 -0.729849 -0.442875
0.002960 -0.843786 -0.154207 -0.520752 -0.729849 -0.442875
-0.498647 -0.682547 0.169887 -0.520752 -0.729849 -0.442875
-0.809477 -0.261210 -0.158981 -0.520454 -0.729443 -0.443893
-0.500215 -0.162530 -0.683744 -0.520454 -0.729443 -0.443893
0.002960 -0.843786 -0.154207 -0.520454 -0.729443 -0.443893
-0.500215 -0.162530 -0.683744 -0.529429 -0.728696 -0.434405
0.000000 -0.525957 -0.683744 -0.529429 -0.728696 -0.434405
0.002960 -0.843786 -0.154207 -0.529429 -0.728696 -0.434405
0.500215 -0.162530 -0.683744 -0.000000 -0.000000 -1.000000
-0.309150 0.425508 -0.683744 -0.000000 -0.000000 -1.000000
0.309150 0.425508 -0.683744 -0.000000 -0.000000 -1.000000
-0.500215 -0.162530 -0.683744 0.000000 -0.000000 -1.000000
0.000000 -0.525957 -0.683744 0.000000 0.000000 -1.000000
0.808129 0.266125 0.174661 0.528437 0.731998 0.430038
0.494308 0.685881 -0.154206 0.528437 0.731998 0.430038
-0.002460 0.851297 0.174662 0.528437 0.731998 0.430038
0.808129 0.266125 0.174661 0.525185 0.727493 0.441513
-0.002460 0.851297 0.174662 0.525185 0.727493 0.441513
0.001353 0.528505 0.701999 0.525185 0.727493 0.441513
0.502314 0.162751 0.701999 0.527354 0.722299 0.447417
0.808129 0.266125 0.174661 0.527354 0.722299 0.447417
0.001353 0.528505 0.701999 0.527354 0.722299 0.447417
-0.309150 0.425508 -0.683744 0.000000 0.893904 -0.448258
-0.497653 0.688656 -0.158981 0.000000 0.893904 -0.448258
0.309150 0.425508 -0.683744 0.000000 0.893904 -0.448258
-0.497653 0.688656 -0.158981 0.004639 0.896734 -0.442545
0.494308 0.685881 -0.154206 0.004639 0.896734 -0.442545
0.309150 0.425508 -0.683744 0.004639 0.896734 -0.442545
-0.497653 0.688656 -0.158981 0.004643 0.896145 -0.443736
-0.002460 0.851297 0.174662 0.004643 0.896145 -0.443736
0.494308 0.685881 -0.154206 0.004643 0.896145 -0.443736
0.309150 0.425508 -0.683744 0.855895 0.278097 -0.436011
0.494308 0.685881 -0.154206 0.855895 0.278097 -0.436011
0.500215 -0.162530 -0.683744 0.855895 0.278097 -0.436011
0.494308 0.685881 -0.154206 0.848389 0.284532 -0.446405
0.808129 0.266125 0.174661 0.848389 0.284532 -0.446405
0.500215 -0.162530 -0.683744 0.848389 0.284532 -0.446405
0.808129 0.266125 0.174661 0.854808 0.271551 -0.442226
0.804318 -0.257445 -0.154206 0.854808 0.271551 -0.442226
0.500215 -0.162530 -0.683744 0.854808 0.271551 -0.442226
0.500215 -0.162530 -0.683744 0.537766 -0.720417 -0.437958
0.804318 -0.257445 -0.154206 0.537766 -0.720417 -0.437958
0.494307 -0.685881 0.169887 0.537766 -0.720417 -0.437958
0.500215 -0.162530 -0.683744 0.525278 -0.727060 -0.442117
0.494307 -0.685881 0.169887 0.525278 -0.727060 -0.442117
0.002960 -0.843786 -0.154207 0.525278 -0.727060 -0.442117
0.500215 -0.162530 -0.683744 0.528064 -0.726817 -0.439188
0.002960 -0.843786 -0.154207 0.528064 -0.726817 -0.439188
0.000000 -0.525957 -0.683744 0.528064 -0.726817 -0.439188
0.001353 0.528505 0.701999 -0.000000 -0.000000 1.000000
-0.501306 0.165088 0.701999 -0.000000 -0.000000 1.000000
0.502314 0.162751 0.701999 -0.000000 -0.000000 1.000000
-0.311005 -0.425271 0.701999 -0.000000 -0.000000 1.000000
0.309266 -0.426715 0.701999 -0.000000 -0.000000 1.000000
-0.500215 -0.162530 -0.683744 -0.851808 0.276769 -0.444772
-0.497653 0.688656 -0.158981 -0.851808 0.276769 -0.444772
-0.309150 0.425508 -0.683744 -0.851808 0.276769 -0.444772
-0.500215 -0.162530 -0.683744 -0.852759 0.275958 -0.443451
-0.809477 0.261210 0.174661 -0.852759 0.275958 -0.443451
-0.497653 0.688656 -0.158981 -0.852759 0.275958 -0.443451
-0.500215 -0.162530 -0.683744 -0.848267 0.285038 -0.446315
-0.809477 -0.261210 -0.158981 -0.848267 0.285038 -0.446315
-0.809477 0.261210 0.174661 -0.848267 0.285038 -0.446315
0.309266 -0.426715 0.701999 0.853354 -0.279470 0.440095
0.808129 0.266125 0.174661 0.853354 -0.279470 0.440095
0.502314 0.162751 0.701999 0.853354 -0.279470 0.440095
0.309266 -0.426715 0.701999 0.853794 -0.281355 0.438034
0.804318 -0.257445 -0.154206 0.853794 -0.281355 0.438034
0.808129 0.266125 0.174661 0.853794 -0.281355 0.438034
0.309266 -0.426715 0.701999 0.852786 -0.286995 0.436336
0.494307 -0.685881 0.169887 0.852786 -0.286995 0.436336
0.804318 -0.257445 -0.154206 0.852786 -0.286995 0.436336
-0.311005 -0.425271 0.701999 -0.002095 -0.899999 0.435887
-0.498647 -0.682547 0.169887 -0.002095 -0.899999 0.435887
0.309266 -0.426715 0.701999 -0.002095 -0.899999 0.435887
-0.498647 -0.682547 0.169887 -0.003020 -0.899445 0.437024
0.494307 -0.685881 0.169887 -0.003020 -0.899445 0.437024
0.309266 -0.426715 0.701999 -0.003020 -0.899445 0.437024
-0.498647 -0.682547 0.169887 -0.003012 -0.897165 0.441685
0.002960 -0.843786 -0.154207 -0.003012 -0.897165 0.441685
0.494307 -0.685881 0.169887 -0.003012 -0.897165 0.441685
-0.501306 0.165088 0.701999 -0.851195 -0.274381 0.447417
-0.809477 0.261210 0.174661 -0.851195 -0.274381 0.447417
-0.311005 -0.425271 0.701999 -0.851195 -0.274381 0.447417
-0.809477 0.261210 0.174661 -0.852782 -0.281108 0.440160
-0.809477 -0.261210 -0.158981 -0.852782 -0.281108 0.440160
-0.311005 -0.425271 0.701999 -0.852782 -0.281108 0.440160
-0.809477 -0.261210 -0.158981 -0.851892 -0.286036 0.438706
-0.498647 -0.682547 0.169887 -0.851892 -0.286036 0.438706
-0.311005 -0.425271 0.701999 -0.851892 -0.286036 0.438706
-0.002460 0.851297 0.174662 -0.531588 0.727013 0.434587
-0.497653 0.688656 -0.158981 -0.531588 0.727013 0.434587
-0.809477 0.261210 0.174661 -0.531588 0.727013 0.434587
0.001353 0.528505 0.701999 -0.528268 0.722472 0.446056
-0.002460 0.851297 0.174662 -0.528268 0.722472 0.446056
-0.809477 0.261210 0.174661 -0.528268 0.722472 0.446056
-0.809477 0.261210 0.174661 -0.526110 0.727685 0.440095
-0.501306 0.165088 0.701999 -0.526110 0.727685 0.440095
0.001353 0.528505 0.701999 -0.526110 0.727685 0.440095
3 0 1 2
3 3 4 5
3 6 7 8
3 9 10 11
3 9 12 10
3 9 13 12
3 14 15 16
3 17 18 19
3 20 21 22
3 23 24 25
3 26 27 28
3 29 30 31
3 32 33 34
3 35 36 37
3 38 39 40
3 41 42 43
3 44 45 46
3 47 48 49
3 50 51 52
3 52 51 53
3 52 53 54
3 55 56 57
3 58 59 60
3 61 62 63
3 64 65 66
3 67 68 69
3 70 71 72
3 73 74 75
3 76 77 78
3 79 80 81
3 82 83 84
3 85 86 87
3 88 89 90
3 91 92 93
3 94 95 96
3 97 98 99
