# Blender v2.69 (sub 0) OBJ File: 'dice.blend'
# www.blender.org
mtllib dice.mtl
o d6
v -0.500000 -0.500000 0.500000
v -0.500000 -0.500000 -0.500000
v 0.500000 -0.500000 -0.500000
v 0.500000 -0.500000 0.500000
v -0.500000 0.500000 0.500000
v -0.500000 0.500000 -0.500000
v 0.500000 0.500000 -0.500000
v 0.500000 0.500000 0.500000
vt 0.666091 0.000000
vt 0.999137 0.000000
vt 0.999137 0.499750
vt 0.666091 0.499750
vt 0.666954 0.500250
vt 1.000000 0.500250
vt 1.000000 1.000000
vt 0.666954 1.000000
vt 0.000000 0.500250
vt 0.333046 0.500250
vt 0.333046 1.000000
vt 0.000000 1.000000
vt 0.000000 0.000000
vt 0.333046 0.000000
vt 0.333046 0.499750
vt 0.000000 0.499750
vt 0.666091 0.999501
vt 0.333046 0.999501
vn -1.000000 0.000000 0.000000
vn 0.000000 0.000000 -1.000000
vn 1.000000 0.000000 0.000000
vn 0.000000 0.000000 1.000000
vn 0.000000 -1.000000 0.000000
vn 0.000000 1.000000 0.000000
usemtl D6Material
s off
f 5/1/1 6/2/1 2/3/1 1/4/1
f 6/5/2 7/6/2 3/7/2 2/8/2
f 7/9/3 8/10/3 4/11/3 3/12/3
f 8/13/4 5/14/4 1/15/4 4/16/4
f 1/15/5 2/4/5 3/17/5 4/18/5
f 8/14/6 7/1/6 6/4/6 5/15/6
o d20
v 0.000000 -0.649000 0.000000
v 0.469616 -0.290243 0.341192
v -0.179374 -0.290243 0.552065
v -0.580482 -0.290243 0.000000
v -0.179374 -0.290243 -0.552065
v 0.469616 -0.290243 -0.341192
v 0.179374 0.290243 0.552065
v -0.469616 0.290243 0.341192
v -0.469616 0.290243 -0.341192
v 0.179374 0.290243 -0.552065
v 0.580482 0.290243 0.000000
v 0.000000 0.649000 0.000000
vt 0.501001 0.252002
vt 0.747998 0.498999
vt 0.501001 0.498999
vt 0.751001 0.498999
vt 0.751001 0.252002
vt 0.997998 0.498999
vt 0.997998 0.248999
vt 0.751001 0.248999
vt 0.751001 0.002002
vt 0.497998 0.748999
vt 0.251001 0.502002
vt 0.251001 0.748999
vt 0.501001 0.002002
vt 0.501001 0.248999
vt 0.747998 0.248999
vt 0.997998 0.748999
vt 0.751001 0.748999
vt 0.751001 0.502002
vt 0.251001 0.498999
vt 0.497998 0.498999
vt 0.251001 0.252002
vt 0.501001 0.748999
vt 0.747998 0.748999
vt 0.501001 0.502002
vt 0.247998 0.998999
vt 0.001001 0.998999
vt 0.001001 0.752002
vt 0.497998 0.248999
vt 0.251001 0.248999
vt 0.251001 0.002002
vt 0.248999 0.997998
vt 0.248999 0.751001
vt 0.002002 0.751001
vt 0.498999 0.247998
vt 0.498999 0.001001
vt 0.252002 0.001001
vt 0.998999 0.747998
vt 0.752002 0.501001
vt 0.998999 0.501001
vt 0.498999 0.497998
vt 0.252002 0.251001
vt 0.498999 0.251001
vt 0.748999 0.747998
vt 0.502002 0.501001
vt 0.748999 0.501001
vt 0.498999 0.501001
vt 0.498999 0.747998
vt 0.252002 0.501001
vt 0.502002 0.001001
vt 0.748999 0.001001
vt 0.748999 0.247998
vt 0.752002 0.251001
vt 0.998999 0.251001
vt 0.998999 0.497998
vt 0.748999 0.251001
vt 0.502002 0.251001
vt 0.748999 0.497998
vt 0.998999 0.247998
vt 0.998999 0.001001
vt 0.752002 0.001001
vn 0.187597 -0.794651 0.577354
vn 0.607065 -0.794652 0.000000
vn -0.491122 -0.794652 0.356829
vn -0.491122 -0.794652 -0.356829
vn 0.187597 -0.794651 -0.577354
vn 0.982246 -0.187597 0.000000
vn 0.303535 -0.187589 0.934172
vn -0.794649 -0.187587 0.577359
vn -0.794649 -0.187587 -0.577359
vn 0.303535 -0.187589 -0.934172
vn 0.794649 0.187587 0.577359
vn -0.303535 0.187589 0.934172
vn -0.982246 0.187597 0.000000
vn -0.303535 0.187589 -0.934172
vn 0.794649 0.187587 -0.577359
vn 0.491122 0.794652 0.356829
vn -0.187597 0.794651 0.577354
vn -0.607065 0.794652 0.000000
vn -0.187597 0.794651 -0.577354
vn 0.491122 0.794652 -0.356829
usemtl d20Material
s off
f 9/19/7 10/20/7 11/21/7
f 10/22/8 9/23/8 14/24/8
f 9/25/9 11/26/9 12/27/9
f 9/28/10 12/29/10 13/30/10
f 9/31/11 13/32/11 14/33/11
f 10/34/12 14/35/12 19/36/12
f 11/37/13 10/38/13 15/39/13
f 12/40/14 11/41/14 16/42/14
f 13/43/15 12/44/15 17/45/15
f 14/46/16 13/47/16 18/48/16
f 10/49/17 19/50/17 15/51/17
f 11/52/18 15/53/18 16/54/18
f 12/55/19 16/56/19 17/57/19
f 13/58/20 17/59/20 18/60/20
f 14/61/21 18/62/21 19/63/21
f 15/64/22 19/65/22 20/66/22
f 16/67/23 15/68/23 20/69/23
f 17/70/24 16/71/24 20/72/24
f 18/73/25 17/74/25 20/75/25
f 19/76/26 18/77/26 20/78/26
o d12
v -0.277715 0.515607 -0.124431
v -0.493435 0.146470 -0.191717
v 0.074146 0.515607 -0.378824
v 0.071477 0.146470 -0.604778
v 0.419215 -0.083737 -0.488986
v 0.424819 0.515607 -0.122796
v 0.638889 0.146470 -0.195157
v 0.636222 -0.083738 0.171342
v 0.289685 0.515606 0.289831
v 0.075271 -0.083738 0.581780
v -0.144504 0.515606 0.288820
v -0.493435 -0.087080 0.173977
v -0.275854 0.143128 0.468913
v 0.419214 0.143128 0.471247
v -0.275158 -0.087080 -0.490929
v 0.289604 -0.454414 -0.306726
v -0.143206 -0.454414 -0.306726
v -0.276951 -0.454414 0.104901
v 0.073199 -0.454414 0.359300
v 0.423350 -0.454414 0.104901
vt 0.250000 0.903613
vt 0.126047 0.997998
vt 0.002002 0.903196
vt 0.049651 0.750000
vt 0.203003 0.750000
vt 0.299365 0.500000
vt 0.452637 0.500000
vt 0.500000 0.653271
vt 0.376001 0.747998
vt 0.252002 0.653271
vt 0.453848 0.750000
vt 0.500000 0.903487
vt 0.375722 0.997998
vt 0.252002 0.902873
vt 0.299982 0.750000
vt 0.126523 0.747998
vt 0.002002 0.654413
vt 0.045968 0.500000
vt 0.199653 0.500000
vt 0.250000 0.652149
vt 0.502002 0.402084
vt 0.551494 0.250000
vt 0.705554 0.250000
vt 0.750000 0.403727
vt 0.625471 0.497998
vt 0.549240 0.500000
vt 0.702603 0.500000
vt 0.750000 0.654828
vt 0.627088 0.747998
vt 0.502002 0.654350
vt 0.376001 0.497998
vt 0.252002 0.403271
vt 0.299365 0.250000
vt 0.452637 0.250000
vt 0.500000 0.403271
vt 0.626551 0.997998
vt 0.502002 0.904443
vt 0.546467 0.750000
vt 0.701808 0.750000
vt 0.750000 0.902307
vt 0.048793 0.250000
vt 0.202515 0.250000
vt 0.250000 0.403383
vt 0.126085 0.497998
vt 0.002002 0.403626
vt 0.953285 0.000000
vt 1.000000 0.153905
vt 0.874627 0.247998
vt 0.752002 0.154022
vt 0.798368 0.000000
vt 0.953564 0.250000
vt 1.000000 0.402359
vt 0.875896 0.497998
vt 0.752002 0.402748
vt 0.798754 0.250000
vt 0.626132 0.247998
vt 0.502002 0.153621
vt 0.546704 0.000000
vt 0.702000 0.000000
vt 0.750000 0.152380
vn -0.523028 -0.440993 0.729361
vn 0.000000 -1.000000 0.000000
vn 0.526702 0.439993 -0.727318
vn 0.003359 -0.444457 -0.895794
vn 0.852251 -0.442398 -0.279200
vn 0.529544 -0.440151 0.725155
vn -0.000000 1.000000 0.000000
vn -0.851275 -0.444603 -0.278673
vn 0.853398 0.438135 0.282399
vn -0.002759 0.437982 0.898980
vn -0.852112 0.441779 0.280602
vn -0.528612 0.441214 -0.725189
usemtl d12Material
s off
f 32/79/27 38/80/27 39/81/27 30/82/27 33/83/27
f 40/84/28 39/85/28 38/86/28 37/87/28 36/88/28
f 26/89/29 27/90/29 25/91/29 24/92/29 23/93/29
f 37/94/30 35/95/30 24/96/30 25/97/30 36/98/30
f 36/99/31 25/100/31 27/101/31 28/102/31 40/103/31
f 40/104/32 28/105/32 34/106/32 30/107/32 39/108/32
f 26/109/33 23/110/33 21/111/33 31/112/33 29/113/33
f 38/114/34 32/115/34 22/116/34 35/117/34 37/118/34
f 29/119/35 34/120/35 28/121/35 27/122/35 26/123/35
f 31/124/36 33/125/36 30/126/36 34/127/36 29/128/36
f 21/129/37 22/130/37 32/131/37 33/132/37 31/133/37
f 23/134/38 24/135/38 35/136/38 22/137/38 21/138/38
